<svg width="802" height="411" xmlns="http://www.w3.org/2000/svg" xmlns:xlink="http://www.w3.org/1999/xlink" overflow="hidden"><defs><clipPath id="clip0"><rect x="226" y="169" width="802" height="411"></rect></clipPath><clipPath id="clip1"><rect x="227" y="170" width="800" height="410"></rect></clipPath><clipPath id="clip2"><rect x="227" y="170" width="801" height="410"></rect></clipPath><clipPath id="clip3"><rect x="227" y="170" width="801" height="410"></rect></clipPath></defs><g clip-path="url(#clip0)" transform="translate(-226 -169)"><g clip-path="url(#clip1)"><g clip-path="url(#clip2)"><g clip-path="url(#clip3)"><path d="M158.573 205.198C173.609 188.625 188.206 171.614 203.891 155.65 213.07 146.271 222.25 136.832 230.341 126.415 237.046 117.775 237.326 111.359 230.491 105.463 224.016 99.8652 216.393 98.5482 208.151 100.663 191.878 104.834 176.333 111.17 160.439 116.458 123.312 128.71 87.1638 143.886 49.5185 154.712 40.0399 157.446 30.4614 159.571 19.9551 159.701 20.8624 157.789 21.8888 155.936 23.0282 154.153 30.0723 144.624 38.5033 136.283 46.6051 127.693 61.7111 111.669 78.4135 97.3708 95.974 84.0308 118.284 67.069 140.564 50.1072 166.395 38.663 176.662 34.1232 187.248 30.8106 198.763 30.8106 203.602 30.8106 205.428 31.988 204.53 36.7972 203.532 41.9556 203.432 46.9144 206.405 51.6936 209.748 57.0516 213.519 58.2788 219.127 55.7345 227.747 51.8433 231.03 43.4223 232.906 35.8493 234.901 27.8673 234.801 18.7877 231.239 10.6361 228.376 4.11075 223.257-0.339236 215.395 0.0798203 205.817 0.668495 197.146 4.46994 188.805 8.56073 172.352 16.6525 157.206 26.9892 142.908 38.3836 124.819 52.6714 106.171 66.1511 87.1239 79.1119 70.6371 90.277 55.1114 102.799 40.7084 116.548 33.9349 122.862 27.513 129.544 21.4717 136.563 14.4175 144.954 8.09178 153.524 5.5076 164.5 3.77151 171.873 6.09628 178.997 12.1127 183.178 15.7545 185.702 24.3851 184.874 29.334 181.691 31.7485 180.134 33.9935 178.428 36.877 177.431 49.8478 172.951 62.6789 168.281 75.4402 163.332 91.2047 157.206 106.75 150.491 122.335 143.906 141.911 135.635 161.477 127.283 181.561 120.289 188.855 117.745 196.348 115.749 203.841 113.834 208.032 112.766 208.61 113.834 207.633 118.334 206.662 123.075 204.8 127.588 202.145 131.634 194.093 143.826 183.916 154.243 174.467 165.268 161.257 180.667 148.127 196.115 135.076 211.614 126.096 222.21 116.907 232.646 108.266 243.542 95.7245 259.316 83.4821 275.32 71.3494 291.384 56.2035 311.399 41.6862 331.873 29.1344 353.644 22.8386 364.569 14.0484 373.409 5.18832 382.11 2.19506 385.043 0.0997754 387.697 0.0199551 391.878-0.0598652 395.869 1.5565 396.527 5.27812 395.48 9.03469 394.389 12.1528 391.756 13.8588 388.236 21.4717 373.759 32.2275 361.546 42.0454 348.685 56.5627 329.678 71.978 311.329 86.2558 292.182 99.8452 274.003 114.931 257.091 129.229 239.521 138.688 227.817 148.456 216.333 158.573 205.198ZM11.2946 154.213C27.0092 131.025 48.2115 113.534 70.3716 97.0016 50.177 115.55 32.0379 136.233 11.2946 154.213ZM74.3726 157.466C97.8298 144.644 123.263 136.862 148.506 128.531 124.22 139.137 99.7754 149.603 74.3726 157.466ZM52.2524 326.266C56.9518 310.741 156.019 187.358 177.61 170.187 137.82 223.327 95.0061 274.023 52.2524 326.266Z" fill="#FFFFFF" fill-rule="nonzero" fill-opacity="1" transform="matrix(1.00244 0 0 1 227 170.106)"></path><path d="M686.604 278.144C677.026 268.755 665.013 263.726 652.681 259.336 650.206 258.448 647.053 259.256 645.317 256.473L635.489 253.21C629.812 253.898 624.674 251.444 619.276 250.476 610.296 248.89 601.316 247.852 592.337 246.355 585.123 245.138 577.909 244.001 570.616 243.362 563.322 242.724 556.158 241.367 549.044 240.429 549.383 239.052 549.553 237.914 549.932 236.857 557.465 215.475 565.826 194.402 574.427 173.43 575.943 169.758 575.874 165.398 579.835 162.514 591.489 154.033 603.681 146.42 615.904 138.847 639.361 124.31 661.93 108.336 686.744 95.944 692.424 93.2891 697.007 88.7476 699.715 83.093 700.852 80.6884 700.653 79.9301 697.879 79.7904 691.823 79.4711 686.345 80.5686 681.336 84.3202 669.014 93.5394 656.971 103.108 644.18 111.699 631.688 120.09 619.017 128.201 607.093 137.451 600.977 142.19 594.352 146.281 587.867 150.541 586.869 151.19 585.522 152.357 584.265 151.449 583.008 150.541 583.556 148.935 583.776 147.727 584.25 145.2 584.89 142.707 585.692 140.264 588.974 130.167 592.337 120.09 595.669 110.012 601.566 92.1526 606.814 74.0932 614.018 56.6525 615.834 52.2524 618.238 47.0142 615.684 41.6163 615.265 40.7383 614.866 39.1818 614.297 39.3215 613.222 39.7014 612.34 40.4902 611.843 41.5165 611.094 43.103 611.493 45.3679 608.59 45.9366L608.59 37.2162 605.307 38.9822C601.626 40.9778 597.325 42.2649 596.787 47.513 596.567 49.768 596.038 51.993 595.649 54.2279 592.656 71.5689 588.505 88.6804 584.814 105.872 581.072 123.273 573.679 139.725 568.371 156.757 565.567 165.737 560.109 171.594 552.716 176.712 539.116 186.081 525.956 196.079 512.357 205.438 501.611 212.821 492.461 222.509 479.83 227.248 474.093 229.394 472.407 235.011 474.113 241.856 475.779 248.541 480.179 252.392 486.086 252.432 493.639 252.482 500.942 250.356 508.376 249.818 516.418 249.239 524.499 247.353 532.88 248.82 526.242 269.563 516.248 289.079 503.297 306.59 498.308 313.285 499.236 318.204 501.95 324.17 503.946 328.471 508.426 328.55 511.06 324.629 516.328 316.807 518.692 307.667 522.793 299.256 529.891 284.789 536.269 270.012 541.93 254.926 544.474 248.201 549.114 245.946 556.338 247.682 557.085 248.003 557.869 248.231 558.672 248.361 573.12 248.271 587.348 250.536 601.576 252.352 612.601 253.769 623.387 256.004 633.664 260.334 637.365 260.055 640.289 262.19 643.471 263.497 644.22 263.776 644.948 264.086 645.706 264.315 654.437 266.899 660.264 273.105 665.661 279.99 668.435 283.542 667.398 287.553 667.338 291.364 667.338 293.799 668.635 294.647 670.271 295.156 676.577 297.151 682.643 296.792 688.53 293.31 692.661 290.855 693.788 288.012 691.194 283.861 689.89 281.785 688.35 279.866 686.604 278.144ZM539.366 235.171C538.757 237.286 537.929 238.503 535.145 238.523 522.813 238.573 511.05 235.63 499.356 232.227 496.452 231.389 495.215 230.002 497.011 226.57 499.067 222.659 502.718 220.723 505.752 218.159 521.476 204.819 537.32 191.629 554.472 180.105 556.112 178.862 557.946 177.898 559.9 177.251 557.724 187.937 553.684 197.056 550.191 206.306 546.56 215.924 542.209 225.263 539.366 235.171Z" fill="#BF1C2D" fill-rule="nonzero" fill-opacity="1" transform="matrix(1.00244 0 0 1 227 170.106)"></path><path d="M292.342 276.188C290.097 264.425 287.553 252.721 285.667 240.898 283.592 227.927 282.095 214.786 280.389 201.726 279.391 193.973 277.984 186.251 277.545 178.468 277.036 169.578 275.769 160.718 276.338 151.768 276.358 150.439 277.025 149.203 278.124 148.456 289.106 140.733 300.111 133.031 311.14 125.348 319.391 119.611 328.351 115.181 337.46 110.98 342.778 108.526 344.844 104.664 343.038 101.352 340.643 96.9617 337.211 93.6492 332.192 92.2124 326.715 90.646 323.212 92.3721 320.888 97.5704 318.944 102.237 316.115 106.482 312.556 110.072 305.852 116.458 299.705 123.432 292.372 129.119 287.742 132.701 283.721 137.101 278.563 139.975 276.757 140.973 275.171 141.412 275.45 138.588 275.979 133.26 274.273 128.152 274.342 122.853 274.642 100.224 273.844 77.5854 276.228 55.0062 277.106 46.7248 277.226 38.3437 278.294 30.0623 278.922 25.1933 278.563 20.2744 275.769 15.8443 272.975 11.4143 264.375 10.3467 261.551 14.677 256.094 23.0681 252.871 32.2474 254.567 42.4045 255.066 45.3978 255.156 48.2514 255.465 51.1748 256.413 59.9151 257.46 68.6554 258.648 77.3658 260.134 88.1516 261.821 98.8974 263.397 109.663 264.724 118.643 266.49 127.623 267.139 136.682 267.458 141.122 269.863 146.76 265.203 150.212 244.3 165.697 224.096 182.06 203.502 197.934 182.589 213.958 162.135 230.411 142.868 248.441 138.977 252.073 135.006 255.774 130.736 259.127 124.969 263.666 119.76 269.014 119.641 277.336 119.581 280.419 121.087 280.758 123.233 280.329 129.219 279.002 134.587 276.228 138.289 271.17 141.265 266.857 144.657 262.847 148.416 259.197 155.68 252.522 163.223 246.136 170.267 239.241 187.817 222.05 204.579 204.041 224.345 189.234 238.114 178.907 251.853 168.541 265.442 157.984 268.436 155.65 269.713 157.126 270.192 159.581 271.62 166.083 272.639 172.667 273.245 179.296 274.183 192.816 277.046 206.056 278.633 219.476 280.099 231.898 281.496 244.42 283.322 256.752 284.559 265.113 286.226 273.424 286.934 281.826 287.672 290.606 290.925 299.047 290.197 309.583 288.88 314.452 291.324 319.042 296.872 322.504 298.468 323.502 299.865 325.038 301.631 324.031 303.397 323.023 305.183 321.756 305.313 319.162 305.502 315.59 304.235 312.487 302.828 309.364 298.041 298.756 294.522 287.62 292.342 276.188Z" fill="#FFFFFF" fill-rule="nonzero" fill-opacity="1" transform="matrix(1.00244 0 0 1 227 170.106)"></path><path d="M524.23 104.764C532.451 91.1748 540.862 77.725 551.239 65.5824 555.52 60.5936 560.428 55.9042 562.743 49.3788 565.677 41.1174 563.332 38.0144 557.655 36.5976 550.052 34.7119 545.442 35.2706 541.87 42.3447 540.588 45.1347 539.142 47.8467 537.54 50.4664 527.2 66.1145 517.733 82.3229 509.184 99.0171 503.646 109.773 498.857 120.968 493.768 131.943 486.674 147.308 480.329 163.003 473.664 178.558 470.79 185.243 468.475 192.407 463.237 198.703 462.349 194.851 463.626 192.028 463.816 189.124 464.814 173.639 466.959 158.284 468.725 142.878 470.641 126.066 474.562 109.753 478.443 93.3598 480.329 85.3778 483.681 77.6552 483.801 69.284 483.891 63.2975 480.518 59.0172 475.819 58.8775 470.421 58.7278 464.215 63.986 463.946 69.1743 463.756 72.7762 463.127 76.408 463.088 79.9201 462.838 99.3663 461.391 118.733 459.905 138.099 459.276 146.261 458.777 154.442 457.819 162.574 456.373 174.846 454.537 187.079 452.95 199.341 451.384 211.384 449.957 223.457 443.581 234.203 442.264 236.428 441.207 238.902 442.065 241.187 444.21 246.844 441.496 251.035 439.002 255.704 426.889 278.373 415.056 301.172 403.083 323.951 396.029 337.42 388.885 350.89 382.13 364.45 376.193 376.303 368.979 387.518 364.17 399.93 362.474 404.33 363.651 409.837 366.096 409.778 370.197 409.698 372.262 406.944 373.21 403.013 375.54 393.809 378.525 384.783 382.14 376.004 389.803 356.737 400.099 338.718 408.86 319.97 419.067 298.119 430.281 276.747 441.915 255.605 444.819 250.317 446.674 249.129 452.452 250.616 456.582 251.693 459.585 250.346 461.781 246.984 465.831 240.758 466.51 233.594 466.819 226.5 467.101 221.299 467.846 216.134 469.044 211.065 471.928 198.144 478.333 186.849 484.779 175.445 498.019 151.988 510.241 127.902 524.23 104.764ZM531.962 68.7153 534.277 69.7131C519.66 106.361 499.166 140.105 480.868 174.936 494.247 137.75 510.541 101.99 531.962 68.7452Z" fill="#FFFFFF" fill-rule="nonzero" fill-opacity="1" transform="matrix(1.00244 0 0 1 227 170.106)"></path><path d="M369.309 208.032C368.361 218.578 368.92 229.204 375.555 238.523 378.877 243.173 385.402 246.445 392.157 243.213 398.573 240.149 403.661 235.171 405.916 228.246 410.366 214.657 412.202 200.529 414.198 186.4 414.966 180.933 413.519 174.816 417.351 170.257 419.496 176.433 421.591 182.848 423.956 189.154 426.101 194.861 429.204 200.07 433.993 203.971 437.176 206.565 441.536 209.189 444.918 206.505 448.6 203.582 449.089 198.104 448.75 193.395 448.411 188.685 445.098 186.221 440.449 185.522 437.066 185.014 434.711 183.168 432.846 180.204 425.333 168.311 423.147 154.871 422.15 141.292 421.282 129.508 421.371 117.545 424.065 105.902 425.113 101.402 424.006 95.9241 431.369 94.2179 437.725 92.7113 439.351 85.4077 435.919 79.7904 433.863 76.428 430.012 74.2728 430.491 69.2541 430.661 67.4482 427.498 66.0314 425.073 65.8418 423.079 65.7367 421.081 65.7367 419.087 65.8418 413.359 66.0114 409.259 70.2818 408.959 76.0488 408.84 78.4534 409.339 80.7981 408.221 83.2925 404.23 92.1226 400.498 101.033 397.026 110.062 389.623 129.289 382.529 148.615 376.961 168.501 373.195 181.413 370.633 194.647 369.309 208.032ZM378.378 192.347C380.374 176.982 385.113 162.205 391.08 147.887 395.929 136.243 401.486 124.939 408.71 114.582 409.249 113.963 409.855 113.404 410.516 112.916 412.422 117.226 411.733 121.197 411.204 125.448 410.376 132.103 410.855 138.877 410.117 145.632 407.802 166.735 405.218 187.767 396.507 207.403 394.183 212.631 390.701 217.381 387.647 222.26 386.863 223.776 385.235 224.661 383.537 224.495 381.322 224.315 380.863 222.499 380.444 221.112 377.67 211.788 376.966 201.971 378.378 192.347Z" fill="#FFFFFF" fill-rule="nonzero" fill-opacity="1" transform="matrix(1.00244 0 0 1 227 170.106)"></path><path d="M737.42 192.108C738.418 185.482 738.278 178.688 742.07 172.452 748.276 162.245 753.424 151.399 759.45 141.062 767.173 127.792 774.107 114.003 784.105 102.15 786.609 99.1568 787.876 95.3953 788.964 91.6836 789.463 89.9874 789.373 88.0219 787.537 86.7846 785.701 85.5474 784.783 87.2336 783.446 87.8822 779.645 89.7081 777.749 93.1603 775.883 96.5327 770.386 106.43 765.547 116.737 760.289 126.715 752.516 141.452 745.542 156.647 738.198 171.614 737.33 173.38 736.662 176.463 733.888 173.669 730.895 170.676 727.782 171.254 724.429 172.542 718.872 174.667 714.362 178.388 710.102 182.34 697.051 194.432 685.786 208.141 675.18 222.33 669.273 230.182 663.357 238.164 659.944 247.513 658.258 252.132 659.495 256.682 662.938 260.214 666.38 263.746 670.391 264.265 675.001 262.419 678.672 260.953 681.616 258.428 684.898 256.373 692.272 251.813 698.727 245.787 706.849 242.315 707.335 243.634 707.359 245.08 706.919 246.415 705.542 252.452 701.71 257.061 698.338 261.99 695.345 266.311 695.644 271.15 698.617 274.073 702.07 277.465 705.602 276.607 709.273 274.362 711.887 272.756 712.676 270.092 713.264 267.468 717.026 250.935 721.646 234.752 728.73 219.217 732.601 210.616 736.003 201.676 737.42 192.108ZM717.385 220.274C715.39 226.261 710.61 229.334 705.771 232.167 696.183 237.795 686.275 242.833 675.479 245.896 673.823 246.365 672.037 246.954 670.78 245.896 669.313 244.699 671 243.153 671.449 241.905 674.611 233.115 680.049 225.612 685.876 218.488 693.04 209.728 700.842 201.526 710.241 195.001 714.932 191.588 720.068 188.835 725.507 186.819 728.181 185.892 729.747 186.5 729.228 189.813 728.899 193.734 726.784 197.046 725.237 200.598 722.543 207.114 719.61 213.579 717.385 220.274Z" fill="#FFFFFF" fill-rule="nonzero" fill-opacity="1" transform="matrix(1.00244 0 0 1 227 170.106)"></path><path d="M381.521 106.849C383.517 101.861 381.471 98.6679 376.213 98.7776 371.314 98.8874 369.159 102.769 367.154 106.101 355.819 125.178 348.066 145.882 340.114 166.485 335.984 177.201 334.128 188.745 328.211 199.621 328.211 190.8 328.071 182.719 328.211 174.677 328.361 167.932 327.892 161.227 328.989 154.442 329.987 148.166 329.329 141.661 325.148 136.263 322.494 132.831 320.638 132.971 318.703 136.752 315.676 142.401 314.49 148.855 315.31 155.211 316.485 162.983 317.118 170.828 317.206 178.688 317.206 190.312 316.927 201.945 317.286 213.559 317.585 223.297 317.725 232.856 313.295 241.895 311.354 245.717 310.656 250.05 311.299 254.288 311.908 258.049 313.464 261.272 317.695 262.589 320.169 263.387 322.584 264.195 324.539 262.389 327.722 259.456 330.706 256.702 331.524 251.624 332.192 247.633 331.204 244.23 331.075 240.588 330.656 226.054 332.517 211.543 336.592 197.585 341.122 181.621 346.191 165.867 352.975 150.691 359.351 136.363 366.665 122.754 377.82 111.499 379.266 110.052 380.753 108.755 381.521 106.849Z" fill="#FFFFFF" fill-rule="nonzero" fill-opacity="1" transform="matrix(1.00244 0 0 1 227 170.106)"></path><path d="M794.152 205.438C792.237 204.44 790.361 204.599 788.415 204.5 784.125 204.27 779.775 205.018 775.195 204.031 778.579 200.982 782.438 198.505 786.619 196.697 789.026 195.665 791.179 194.119 792.925 192.167 794.454 190.735 794.903 188.49 794.043 186.58 793.105 184.415 791.478 183.587 789.054 183.477 785.851 183.327 783.277 184.664 780.932 186.331 768.912 194.871 756.939 203.492 745.013 212.192 740.974 215.086 738.234 219.45 737.38 224.345 736.432 229.853 738.208 235.021 745.522 234.512 749.513 234.233 752.616 232.357 755.699 230.322 762.683 225.732 769.468 220.973 776.332 216.283 771.004 224.634 763.431 230.771 757.195 238.084 751.125 245.266 745.532 252.839 740.453 260.753 735.365 268.615 728.48 275.3 724.21 284.41 727.802 284.19 729.638 282.414 731.493 280.529 745.808 266.181 760.146 251.853 774.507 237.545 775.654 236.408 776.981 235.38 778.168 234.313 785.153 228.057 792.326 221.97 797.006 213.629 799.121 209.878 797.934 207.323 794.152 205.438Z" fill="#FFFFFF" fill-rule="nonzero" fill-opacity="1" transform="matrix(1.00244 0 0 1 227 170.106)"></path><path d="M645.277 256.473C646.664 239.73 651.972 223.976 657.48 208.291 660.004 201.087 662.808 194.003 662.369 186.181 661.96 178.678 657.699 176.313 651.394 179.975 650.488 180.309 649.542 180.52 648.58 180.603 646.355 181.132 644.589 182.449 644.489 184.754 644.389 187.059 643.491 189.274 643.491 191.479 643.68 205.557 642.301 219.612 639.381 233.385 637.934 239.98 638.283 246.934 635.39 253.24L635.39 253.24Z" fill="#FFFFFF" fill-rule="nonzero" fill-opacity="1" transform="matrix(1.00244 0 0 1 227 170.106)"></path><path d="M633.624 260.344C634.396 261.796 634.683 263.457 634.442 265.083 632.656 275.769 630.65 286.415 629.104 297.141 628.206 303.387 625.881 309.763 629.303 316.268 630.862 315.47 632.04 314.084 632.576 312.417 635.799 303.806 635.2 294.537 637.435 285.777 639.331 278.323 639.51 270.411 643.422 263.507L643.422 263.507C640.249 262.2 637.325 260.065 633.624 260.344Z" fill="#FFFFFF" fill-rule="nonzero" fill-opacity="1" transform="matrix(1.00244 0 0 1 227 170.106)"></path><path d="M641.396 160.07C641.276 164.061 642.943 165.926 646.964 165.607 651.952 165.607 658.318 159.042 658.388 153.794 658.448 150.062 656.562 147.867 652.9 147.707 647.742 147.478 641.556 154.442 641.396 160.07Z" fill="#FFFFFF" fill-rule="nonzero" fill-opacity="1" transform="matrix(1.00244 0 0 1 227 170.106)"></path></g></g></g></g></svg>