


<svg version="1.1" id="svg824" xml:space="preserve" width="800" height="693.71503" viewBox="0 0 800 693.71503" xmlns="http://www.w3.org/2000/svg"><defs id="defs828"></defs><g id="g830" transform="matrix(1.3333333,0,0,-1.3333333,0,816)"><g id="g963" transform="matrix(1.3725534,0,0,1.3725534,-119.39334,-6.9611527)" style="fill:#ffffff"><path d="M 480.466,375.096 H 261.341 v 75.624 h 219.125 z" style="fill:#ffffff;fill-opacity:1;fill-rule:nonzero;stroke:none" id="path832"></path><g id="g834" transform="translate(261.3409,450.7198)" style="fill:#ffffff"><path d="M 0,0 -43.662,-75.624 H 43.662 Z" style="fill:#ffffff;fill-opacity:1;fill-rule:nonzero;stroke:none" id="path836"></path></g><g id="g838" transform="translate(480.4661,375.0956)" style="fill:#ffffff"><path d="M 0,0 -43.662,75.624 H 43.662 Z" style="fill:#ffffff;fill-opacity:1;fill-rule:nonzero;stroke:none" id="path840"></path></g><g id="g842" transform="translate(261.3409,147.5155)" style="fill:#ffffff"><path d="M 0,0 109.563,189.768 175.055,151.956 65.493,-37.812 Z" style="fill:#ffffff;fill-opacity:1;fill-rule:nonzero;stroke:none" id="path844"></path></g><g id="g846" transform="translate(436.396,299.4713)" style="fill:#ffffff"><path d="M 0,0 -43.662,75.624 -87.323,0 Z" style="fill:#ffffff;fill-opacity:1;fill-rule:nonzero;stroke:none" id="path848"></path></g><g id="g850" transform="translate(261.3409,147.5155)" style="fill:#ffffff"><path d="M 0,0 H 87.323 L 43.662,-75.624 Z" style="fill:#ffffff;fill-opacity:1;fill-rule:nonzero;stroke:none" id="path852"></path></g><g id="g854" transform="translate(189.837,272.8127)" style="fill:#ffffff"><path d="M 0,0 -81.02,140.331 -15.528,178.143 65.493,37.812 Z" style="fill:#ffffff;fill-opacity:1;fill-rule:nonzero;stroke:none" id="path856"></path></g><g id="g858" transform="translate(174.3093,450.956)" style="fill:#ffffff"><path d="m 0,0 h -87.323 l 43.661,-75.624 z" style="fill:#ffffff;fill-opacity:1;fill-rule:nonzero;stroke:none" id="path860"></path></g><g id="g862" transform="translate(189.837,272.8127)" style="fill:#ffffff"><path d="M 0,0 43.662,75.624 87.323,0 Z" style="fill:#ffffff;fill-opacity:1;fill-rule:nonzero;stroke:none" id="path864"></path></g></g></g></svg>
