<svg xmlns="http://www.w3.org/2000/svg" viewBox="0 0 360.61 158.37"><g id="레이어_2"><g id="레이어_1-2"><g id="レイヤー_2"><g id="Layer_1"><polygon points="107.42 45.28 107.12 44.19 80.13 46.87 69.34 52.82 74.05 18.51 62.53 0 53.81 2.74 54.33 40.72 39.84 21.79 38.5 22.51 50.83 53.01 0 48.37 0 59.17 19.45 65.52 8.34 70.2 8.87 71.92 54.67 67.74 51.87 75.84 51.7 116.69 59.69 122.61 73.88 110.79 67.94 80.07 83.67 99.96 84.93 99.03 72.89 65.19 116.39 70.25 122.61 60.14 122.61 50.72 91.2 52.82 107.42 45.28" style="fill:#e12141"></polygon><polygon points="66.71 56.11 61.8 35.56 60.85 35.56 56.43 54.62 39.84 60 39.84 60.94 57.69 63.08 62.17 80.22 63.12 80.22 65.79 63.55 84.98 59.7 84.98 58.76 66.71 56.11" style="fill:#62111f"></polygon><polygon points="360.61 60.8 352.42 49.04 312.33 54.15 320.56 20.87 319.52 20.38 306.97 38.48 309.5 0 300.01 0 289.82 6.24 293.43 49.49 261.52 38.18 260.6 39.45 281.23 55.71 245.17 49.27 238 63.52 243.97 72.98 294 69.14 291.3 78.71 289.56 122.61 300.44 122.61 306.72 105.29 311.57 116.39 313.3 115.86 308.13 70.72 338.64 83 339.37 81.65 322.64 68.91 360.22 70.98 360.61 60.8" style="fill:#e12141"></polygon><polygon points="306.34 57.85 301.4 37.85 300.45 37.84 296.36 56.49 279.82 62.3 279.81 63.25 297.54 65.11 302.56 82.59 303.5 82.6 305.59 65.65 324.7 61.19 324.71 60.23 306.34 57.85" style="fill:#62111f"></polygon><polygon points="197.55 70.99 221.98 61.52 221.75 60.43 199.75 61.05 201.72 50.31 223.75 34.27 224.79 19.16 215.51 14.66 209.39 21.15 205.4 19.04 193.24 38.26 193.23 38.28 181.36 48.89 170.24 43.12 153.86 12.38 152.21 12.9 155.08 26.88 141.62 13.17 131.77 21.34 133.78 33.11 157.82 51.44 162.9 67.16 136.47 79.17 136.93 80.36 150.72 79.65 132.23 96.15 132.86 105.72 150.46 108.84 175.13 76.03 181.78 78.28 195.96 101.42 197.21 100.79 194.27 86.61 212.63 110.23 223.82 107.78 228.84 97.41 197.55 70.99" style="fill:#181f21"></polygon><polygon points="178.79 53.97 171.62 49.51 164.98 53.69 169.1 66.6 176.74 60.93 178.79 53.97" style="fill:#e12141"></polygon><polygon points="193.68 61.26 195.18 53.13 189.34 49.38 184.22 53.43 182.18 59.94 193.68 61.26" style="fill:#e12141"></polygon><polygon points="174.33 70.36 180.97 73.7 192.88 65.59 192.89 65.56 179.99 63.31 174.33 70.36" style="fill:#e12141"></polygon><path d="M43.62,136c-4.76,0-7.56,2.74-7.56,7.1v2.38H26.94v-9.12H23.55v9.12H14.42v3.4h9.13V158h3.39v-9.12h9.12v2.38c0,4.36,3.07,7.1,7.56,7.1s7.59-2.74,7.59-7.1V143.1C51.21,138.75,48.14,136,43.62,136Zm4.2,15.26c0,1.38-.55,3.71-4.2,3.71-1.56,0-4.17-.49-4.17-3.71V143.1c0-1.59.43-3.71,4.17-3.71s4.2,2.33,4.2,3.71Z"></path><polygon points="67.07 136.37 63.11 146.48 59.14 136.37 54.81 136.37 54.81 158.01 58.2 158.01 58.2 142.63 61.41 150.79 64.8 150.79 68.01 142.63 68.01 158.01 71.4 158.01 71.4 136.37 67.07 136.37"></polygon><path d="M82.56,136c-4.75,0-7.55,2.74-7.55,7.1v8.16c0,4.36,3.07,7.1,7.55,7.1s7.59-2.74,7.59-7.1V143.1c0-4.36-3.07-7.1-7.59-7.1m4.2,15.26c0,1.38-.54,3.71-4.2,3.71-1.55,0-4.16-.49-4.16-3.71V143.1c0-1.59.43-3.71,4.16-3.71s4.2,2.33,4.2,3.71Z"></path><path d="M135.93,136c-4.75,0-7.55,2.74-7.55,7.1v8.16c0,4.36,3.07,7.1,7.55,7.1s7.59-2.74,7.59-7.1V143.1c0-4.36-3.07-7.1-7.59-7.1m4.2,15.26c0,1.38-.54,3.71-4.2,3.71-1.55,0-4.16-.49-4.16-3.71V143.1c0-1.59.43-3.71,4.16-3.71s4.2,2.33,4.2,3.71Z"></path><path d="M107.82,143.22a6.85,6.85,0,0,0-6.85-6.85H93.76V158h3.39v-7.94h4.17l3.21,7.94h3.65l-3.61-8.95a6.87,6.87,0,0,0,3.25-5.84m-10.67-3.46H101a3.46,3.46,0,0,1,0,6.92H97.15Z"></path><path d="M125.13,143.22a6.85,6.85,0,0,0-6.85-6.85h-7.21V158h3.39v-7.94h4.17l3.21,7.94h3.65l-3.61-8.95a6.87,6.87,0,0,0,3.25-5.84m-10.67-3.46h3.82a3.46,3.46,0,0,1,0,6.92h-3.82Z"></path><path d="M345.83,143.22a6.85,6.85,0,0,0-6.85-6.85h-7.22V158h3.4v-7.94h4.16l3.21,7.94h3.66l-3.62-8.95a6.85,6.85,0,0,0,3.26-5.84m-10.67-3.46H339a3.46,3.46,0,0,1,0,6.92h-3.82Z"></path><polygon points="160.33 151.75 157.12 143.58 153.73 143.58 150.52 151.75 150.52 136.37 147.13 136.37 147.13 158.01 151.46 158.01 155.43 147.9 159.39 158.01 163.72 158.01 163.72 136.37 160.33 136.37 160.33 151.75"></polygon><polygon points="187.75 147.19 196.17 138.77 193.78 136.37 185.36 144.79 176.94 136.37 174.54 138.77 182.96 147.19 174.54 155.61 176.94 158.01 185.36 149.59 193.78 158.01 196.17 155.61 187.75 147.19"></polygon><polygon points="264.69 136.37 264.69 158.01 277.67 158.01 277.67 154.62 268.08 154.62 268.08 148.89 276.95 148.89 276.95 145.49 268.08 145.49 268.08 139.76 277.67 139.76 277.67 136.37 264.69 136.37"></polygon><polygon points="315.18 136.37 315.18 158.01 328.16 158.01 328.16 154.62 318.57 154.62 318.57 148.89 327.44 148.89 327.44 145.49 318.57 145.49 318.57 139.76 328.16 139.76 328.16 136.37 315.18 136.37"></polygon><polygon points="308.18 145.42 300.54 145.42 300.54 136.37 297.15 136.37 297.15 158.01 300.54 158.01 300.54 148.81 308.18 148.81 308.18 158.01 311.57 158.01 311.57 136.37 308.18 136.37 308.18 145.42"></polygon><polygon points="279.84 136.37 279.84 139.76 285.35 139.76 285.35 158.01 288.74 158.01 288.74 139.76 294.26 139.76 294.26 136.37 279.84 136.37"></polygon><path d="M234.74,136c-4.75,0-7.55,2.74-7.55,7.1v2.38h-9.13v-9.12h-3.39v9.12h-9.12v3.4h9.12V158h3.39v-9.12h9.13v2.38c0,4.36,3.07,7.1,7.55,7.1s7.59-2.74,7.59-7.1V143.1C242.33,138.75,239.26,136,234.74,136Zm4.2,15.26c0,1.38-.54,3.71-4.2,3.71-1.55,0-4.16-.49-4.16-3.71V143.1c0-1.59.43-3.71,4.16-3.71s4.2,2.33,4.2,3.71Z"></path><path d="M253.15,145.49v3.4h4.54v2.38c0,1.38-.54,3.71-4.2,3.71-1.55,0-4.16-.48-4.16-3.71v-8.16c0-1.59.43-3.71,4.16-3.71,2.86,0,3.81,1.42,4.09,2.7H261c-.44-3.76-3.37-6.09-7.53-6.09-4.75,0-7.55,2.74-7.55,7.1v8.16c0,4.36,3.07,7.1,7.55,7.1s7.59-2.74,7.59-7.1v-5.78Z"></path></g></g></g></g></svg>